<svg xmlns="http://www.w3.org/2000/svg" viewBox="0 0 284.31 157.28"><defs><style>.cls-1{fill:#1d1d1b;}.cls-2{fill:none;}.cls-3{fill:#1e1e1c;}</style></defs><g id="Calque_2" data-name="Calque 2"><g id="Calque_1-2" data-name="Calque 1"><path class="cls-1" d="M38.91,132.37c-1.78,1.86-4.69,3.8-7.36,3.8-3.08,0-4.37-2.43-4.37-7.52v-1.54c-2.35,5.74-7.2,9.63-14.64,9.63-7,0-12.54-3.4-12.54-10.68,0-8.17,7.28-12.46,19.25-12.46a58.88,58.88,0,0,1,7.93.57v-6.31c0-8.82-3.64-13.27-10.27-13.27-4.53,0-8,2.18-10.28,7.28l-1,2c-1.86-.32-2.91-1.21-2.91-3,0-4.13,6.23-8.66,15.13-8.66,9.22,0,14.48,4.78,14.48,15.37v19.82c0,3.24.56,4.94,2.18,4.94A7,7,0,0,0,38,130.91ZM27.18,117.89v-1.62a46.61,46.61,0,0,0-7.77-.65c-9.87,0-13.83,3.32-13.83,9.39,0,5.9,3.8,8.89,8.9,8.89C22.25,133.9,27.18,126.7,27.18,117.89Z"/><path class="cls-1" d="M45.7,134.39c5.42-.41,6.87-1,6.87-5.66V103.25c0-5.1-1.53-6.64-6.87-7V94.83l10.67-2h1.3v35.92c0,4.61,1.54,5.25,6.88,5.66v1.37H45.7Zm5.09-53.55a3.94,3.94,0,0,1,4-4,3.78,3.78,0,0,1,4,3.89,4,4,0,0,1-4,4.12A3.78,3.78,0,0,1,50.79,80.84Z"/><path class="cls-1" d="M71.09,134.39c5.43-.41,6.88-1,6.88-5.66V85.21c0-5-1.54-6.56-6.88-7V76.88l10.68-2h1.3v53.88c0,4.61,1.53,5.25,6.87,5.66v1.37H71.09Z"/><path class="cls-1" d="M158.21,127.19a19.72,19.72,0,0,1-17.47,9.55c-11.49,0-19.5-8.09-19.5-21.68,0-13.43,7.93-22.82,20.23-22.82,11.08,0,17.39,7.45,16.66,19.34H126.91a17,17,0,0,0-.08,2c0,12.46,6.14,19.49,15.45,19.49,3.88,0,10.35-1.21,14.07-7Zm-31.14-17.88h25.72c-.24-9.46-4.69-15-12-15C132.81,94.27,128.2,100.58,127.07,109.31Z"/><path class="cls-1" d="M212,132.85v1.38l-9.95,2h-1.13l-.57-10.11H200a15.87,15.87,0,0,1-15.54,10.6c-8.89,0-14-4.78-14-15.29v-18.2c0-5.1-1.62-6.64-7-7V94.83l10.76-2h1.3v28c0,8.74,4.12,12.78,10.51,12.78,7.77,0,13.84-6.47,13.84-15.94V103.25c0-5.1-1.54-6.64-6.88-7V94.83l10.76-2H205v35C205,132.2,206.5,132.77,212,132.85Z"/><path class="cls-1" d="M248.31,96.29a5.8,5.8,0,0,1-1.05,3.15L244,98.07a12.44,12.44,0,0,0-4.21-.81c-4.69,0-8.9,2.59-8.9,8.33v23.14c0,4.61,1.7,5.25,7.69,5.66v1.37H218.87v-1.37c5.42-.41,6.87-1,6.87-5.66V103.25c0-5.1-1.53-6.64-6.87-7V94.83l10.76-2h.81V100h.32a13.09,13.09,0,0,1,11.73-7.36C246.29,92.65,248.31,94.19,248.31,96.29Z"/><path class="cls-1" d="M254.22,133.26v-9h1.61c1.14,7.12,6.15,10.27,12.54,10.27,6.8,0,11.57-3.48,11.57-8.82,0-3.88-2.59-6.47-9.54-8.89l-3.32-1.14c-5.58-1.94-12-4.93-12-12.45,0-6.8,5.17-11,13.59-11a28.91,28.91,0,0,1,13.18,3.4v7.85h-1.62c-1.29-6.47-6.63-9.06-11.89-9.06-5.5,0-8.9,2.91-8.9,7.44,0,4.13,2.92,6.55,9.63,8.9l3.32,1.13c8.65,3,12,6.88,12,12.46,0,7.68-6.63,12.38-16.42,12.38A28.16,28.16,0,0,1,254.22,133.26Z"/><line class="cls-2" x1="103.37" y1="85.21" x2="103.37" y2="75.57"/><path class="cls-1" d="M108.46,128.72V74.85h-1.3l-3.79.72v53.15c0,4.62-1.46,5.26-6.87,5.66v1.38h18.84v-1.38C110,134,108.46,133.34,108.46,128.72Z"/><rect class="cls-1" x="103.37" width="5.09" height="80.63" rx="2.54"/><path class="cls-3" d="M138.76,11l6.71,4.05c.07,0,.07,0,0,0l-5,5.8-2.9.86-31.1,4.76h-.14l-.79-5.31c-.07,0-.06,0,0,0l-.65-5.32a.4.4,0,0,1,.13,0l31.1-4.76Z"/><path class="cls-3" d="M83.59,37.93l-4.81-4.39s0,0,0,0l3.38-5.49,2-.7,21.71-3H106l.69,5.32s0,0,0,0l.59,5.33-.09,0L85.45,38S83.61,37.94,83.59,37.93Z"/><path class="cls-3" d="M94.35,55.78a.32.32,0,0,1-.12-.21l-1-6.27v0c0,.32-.16.24,0,0L96,46a.3.3,0,0,1,.19-.14l.91-.16L106.85,48l.27.44-1,4.91s0,0,0,0l-1,4.93-.37.26L95,56.26Z"/><path class="cls-1" d="M0,151.74C0,148.31,2.19,146,5.43,146a7.23,7.23,0,0,1,3.75,1.09v2.24H8.79a3.42,3.42,0,0,0-3.45-2.81c-2.28,0-3.66,1.91-3.66,4.86,0,3.17,1.57,5,4,5a4,4,0,0,0,3.43-1.79l.38.23a5,5,0,0,1-4.4,2.46C2.1,157.28,0,155.12,0,151.74Z"/><path class="cls-1" d="M10.89,151.71c0-3.45,2.19-5.71,5.43-5.71s5.29,2.07,5.29,5.56-2.17,5.72-5.41,5.72S10.89,155.21,10.89,151.71Zm9,0c0-3.26-1.5-5.24-3.77-5.24s-3.55,1.89-3.55,5,1.48,5.23,3.75,5.23S19.92,154.86,19.92,151.76Z"/><path class="cls-1" d="M33.73,146.18v.31c-1,.09-1.29.47-1.29,1.4v9.21h-.82l-6.54-8.94v7.23c0,.93.37,1.3,1.48,1.39v.32H22.93v-.32c1.11-.09,1.44-.46,1.44-1.39v-7.5c0-.89-.42-1.31-1.44-1.4v-.31h2.6l6.19,8.55v-6.84c0-.93-.36-1.31-1.48-1.4v-.31Z"/><path class="cls-1" d="M34.83,156.33V154h.37a3,3,0,0,0,3,2.76c1.51,0,2.58-.84,2.58-2.16,0-1-.65-1.62-2.21-2.24l-.78-.31C36.42,151.5,35,150.8,35,149s1.37-3,3.38-3a5.87,5.87,0,0,1,3.18.87V149h-.38a2.79,2.79,0,0,0-2.83-2.49,1.87,1.87,0,0,0-2,2c0,1,.63,1.57,2.16,2.19l.8.31c2,.8,2.88,1.62,2.88,3.17,0,1.93-1.55,3.15-3.9,3.15A6.09,6.09,0,0,1,34.83,156.33Z"/><path class="cls-1" d="M52.41,154l-.23,3.11H43.45v-.32c1.07-.09,1.37-.21,1.37-1.09v-8.1c0-.89-.3-1-1.37-1.1v-.31h8.61v2.71h-.37l-.3-.84c-.44-1.23-1.19-1.33-2.31-1.33H46.35v4.48h2c1,0,1.52-.12,1.77-1l.11-.43h.37v3.39h-.37l-.11-.44c-.25-.87-.72-1-1.77-1h-2v4.67a7.69,7.69,0,0,0,1.92.15c2.13,0,2.85-.14,3.3-1.34L52,154Z"/><path class="cls-1" d="M53.77,156.78c1.07-.09,1.37-.21,1.37-1.09v-8.1c0-.89-.3-1-1.37-1.1v-.31h4.28v.31c-1.08.09-1.38.21-1.38,1.1v8.1c0,.88.3,1,1.38,1.09v.32H53.77Z"/><path class="cls-1" d="M67.21,154,67,157.1H59.31v-.32c1.07-.09,1.36-.21,1.36-1.09v-8.1c0-.89-.29-1-1.36-1.1v-.31h4.27v.31c-1.08.09-1.38.21-1.38,1.1v8.86a3.42,3.42,0,0,0,.89.11c2.13,0,2.85-.14,3.3-1.34l.46-1.23Z"/><path class="cls-1" d="M74.73,152.48v3.21c0,.88.3,1,1.54,1.09v.32H71.83v-.32c1.07-.09,1.37-.21,1.37-1.09v-8.1c0-.89-.3-1-1.37-1.1v-.31h4.28c2.81,0,4.33,1,4.33,3,0,2.2-1.89,3.37-4.38,3.37C75.62,152.55,75.1,152.52,74.73,152.48Zm1-5.76h-1v5.19a6.43,6.43,0,0,0,1.11.12c1.89,0,3-.87,3-2.66S77.79,146.72,75.74,146.72Z"/><path class="cls-1" d="M81.78,151.71c0-3.45,2.19-5.71,5.43-5.71s5.29,2.07,5.29,5.56-2.17,5.72-5.41,5.72S81.78,155.21,81.78,151.71Zm9,0c0-3.26-1.5-5.24-3.77-5.24s-3.55,1.89-3.55,5,1.48,5.23,3.75,5.23S90.81,154.86,90.81,151.76Z"/><path class="cls-1" d="M94.77,153.48v-5.89c0-.89-.29-1-1.35-1.1v-.31h4.26v.31c-1.08.09-1.38.21-1.38,1.1v5.74c0,2.19.91,3.26,2.91,3.26,1.81,0,3-1,3-3.21v-5.49c0-.93-.4-1.31-1.51-1.4v-.31h3.57v.31c-1,.09-1.35.47-1.35,1.4v5.5c0,2.64-1.44,3.89-4,3.89S94.77,156.12,94.77,153.48Z"/><path class="cls-1" d="M115.21,156.78v.32a7,7,0,0,1-1.2.1A2.11,2.11,0,0,1,112,156l-2.24-3.42a.8.8,0,0,0-.8-.37h-1.07v3.45c0,.88.3,1,1.31,1.09v.32H105v-.32c1.06-.09,1.36-.21,1.36-1.09v-8.1c0-.89-.3-1-1.36-1.1v-.31h4.36c2.7,0,4.2.87,4.2,2.71A3.2,3.2,0,0,1,111,152l2.41,3.5C114,156.35,114.58,156.78,115.21,156.78Zm-3.31-7.66c0-1.58-1.07-2.4-3-2.4h-1v4.89a8.62,8.62,0,0,0,1.31.12A2.46,2.46,0,0,0,111.9,149.12Z"/><path class="cls-1" d="M119.66,151.74c0-3.43,2.18-5.74,5.42-5.74a7.19,7.19,0,0,1,3.75,1.09v2.24h-.39a3.41,3.41,0,0,0-3.44-2.81c-2.29,0-3.67,1.91-3.67,4.86,0,3.17,1.58,5,4,5a4,4,0,0,0,3.44-1.79l.37.23a5,5,0,0,1-4.39,2.46C121.75,157.28,119.66,155.12,119.66,151.74Z"/><path class="cls-1" d="M140.17,147.59v8.1c0,.88.3,1,1.37,1.09v.32h-4.26v-.32c1.06-.09,1.36-.21,1.36-1.09v-3.93h-5.5v3.93c0,.88.3,1,1.38,1.09v.32h-4.28v-.32c1.07-.09,1.37-.21,1.37-1.09v-8.1c0-.89-.3-1-1.37-1.1v-.31h4.28v.31c-1.08.09-1.38.21-1.38,1.1v3.6h5.5v-3.6c0-.89-.3-1-1.36-1.1v-.31h4.26v.31C140.47,146.58,140.17,146.7,140.17,147.59Z"/><path class="cls-1" d="M152.94,156.78v.32h-4.11v-.32c1.26-.1,1.48-.36,1.17-1.18l-.75-1.95h-4.47l-.66,1.69c-.38.95.1,1.34,1.36,1.44v.32H142v-.32c.79-.1,1-.51,1.33-1.24l3.69-9.36h1l3.71,9.42C151.93,156.32,152.14,156.68,152.94,156.78ZM149,153.09l-2-5.19-2,5.19Z"/><path class="cls-1" d="M164.16,146.18v.31c-1,.09-1.29.47-1.29,1.4v9.21H162l-6.54-8.94v7.23c0,.93.38,1.3,1.49,1.39v.32h-3.63v-.32c1.11-.09,1.44-.46,1.44-1.39v-7.5c0-.89-.42-1.31-1.44-1.4v-.31H156l6.2,8.55v-6.84c0-.93-.36-1.31-1.49-1.4v-.31Z"/><path class="cls-1" d="M165.3,151.85c0-3.51,2.26-5.85,5.59-5.85a7.12,7.12,0,0,1,3.75,1.09v2.24h-.39a3.41,3.41,0,0,0-3.45-2.81c-2.34,0-3.82,1.89-3.82,5s1.45,5.16,3.82,5.16a4.11,4.11,0,0,0,2.57-.87v-2.29c0-.89-.3-1-1.43-1.1v-.31H176v.31c-1,.09-1.2.21-1.2,1.1v2.58a7.66,7.66,0,0,1-4.16,1.14C167.26,157.28,165.3,155.12,165.3,151.85Z"/><path class="cls-1" d="M185.91,154l-.23,3.11H177v-.32c1.07-.09,1.37-.21,1.37-1.09v-8.1c0-.89-.3-1-1.37-1.1v-.31h8.61v2.71h-.37l-.3-.84c-.44-1.23-1.19-1.33-2.31-1.33h-2.73v4.48h2c1.05,0,1.52-.12,1.77-1l.11-.43h.37v3.39h-.37l-.11-.44c-.25-.87-.72-1-1.77-1h-2v4.67a7.69,7.69,0,0,0,1.92.15c2.13,0,2.85-.14,3.3-1.34l.46-1.23Z"/><path class="cls-1" d="M197.53,156.78v.32a7,7,0,0,1-1.2.1,2.11,2.11,0,0,1-2.05-1.17L192,152.61a.81.81,0,0,0-.81-.37h-1.06v3.45c0,.88.3,1,1.3,1.09v.32h-4.2v-.32c1.07-.09,1.37-.21,1.37-1.09v-8.1c0-.89-.3-1-1.37-1.1v-.31h4.37c2.7,0,4.2.87,4.2,2.71A3.19,3.19,0,0,1,193.3,152l2.42,3.5C196.35,156.35,196.9,156.78,197.53,156.78Zm-3.31-7.66c0-1.58-1.07-2.4-3.05-2.4h-1v4.89a8.5,8.5,0,0,0,1.3.12A2.47,2.47,0,0,0,194.22,149.12Z"/><path class="cls-1" d="M209.8,154l-.22,3.11H201.9v-.32c1.06-.09,1.36-.21,1.36-1.09v-8.1c0-.89-.3-1-1.36-1.1v-.31h4.27v.31c-1.08.09-1.38.21-1.38,1.1v8.86a3.42,3.42,0,0,0,.89.11c2.13,0,2.85-.14,3.3-1.34l.46-1.23Z"/><path class="cls-1" d="M219.81,154l-.23,3.11h-8.73v-.32c1.07-.09,1.37-.21,1.37-1.09v-8.1c0-.89-.3-1-1.37-1.1v-.31h8.61v2.71h-.37l-.3-.84c-.44-1.23-1.19-1.33-2.31-1.33h-2.73v4.48h2c1,0,1.52-.12,1.77-1l.11-.43H218v3.39h-.37l-.11-.44c-.25-.87-.72-1-1.77-1h-2v4.67a7.69,7.69,0,0,0,1.92.15c2.13,0,2.85-.14,3.3-1.34l.46-1.23Z"/><path class="cls-1" d="M238.35,156.78v.32H234v-.32c1.13-.09,1.46-.31,1.43-1.2l-.27-8.22-3.78,9h-.59l-3.9-8.93-.28,8.16c0,.89.31,1.11,1.44,1.2v.32h-3.54v-.32c1.11-.09,1.36-.31,1.39-1.2l.27-7.89c0-.88-.27-1.11-1.38-1.2v-.31H228l3.53,8,3.06-7.21a5.39,5.39,0,0,0,.24-.84h3.25v.31c-1.12.09-1.42.32-1.39,1.2l.27,7.89C237,156.47,237.22,156.69,238.35,156.78Z"/><path class="cls-1" d="M239.44,151.71c0-3.45,2.19-5.71,5.43-5.71s5.3,2.07,5.3,5.56-2.18,5.72-5.42,5.72S239.44,155.21,239.44,151.71Zm9,0c0-3.26-1.5-5.24-3.76-5.24s-3.56,1.89-3.56,5,1.49,5.23,3.75,5.23S248.47,154.86,248.47,151.76Z"/><path class="cls-1" d="M262.29,146.18v.31c-1,.09-1.29.47-1.29,1.4v9.21h-.83l-6.54-8.94v7.23c0,.93.38,1.3,1.49,1.39v.32h-3.63v-.32c1.11-.09,1.44-.46,1.44-1.39v-7.5c0-.89-.42-1.31-1.44-1.4v-.31h2.59l6.2,8.55v-6.84c0-.93-.36-1.31-1.49-1.4v-.31Z"/><path class="cls-1" d="M274,151.52c0,3.52-2.24,5.58-6.06,5.58h-4.53v-.32c1.06-.09,1.36-.21,1.36-1.09v-8.1c0-.89-.3-1-1.36-1.1v-.31h4.78C271.78,146.18,274,148.05,274,151.52Zm-1.71.13c0-3.15-1.61-4.93-4.41-4.93h-1.58v9.7a8.41,8.41,0,0,0,1.82.14C270.91,156.56,272.31,154.89,272.31,151.65Z"/><path class="cls-1" d="M284.31,154l-.23,3.11h-8.73v-.32c1.07-.09,1.37-.21,1.37-1.09v-8.1c0-.89-.3-1-1.37-1.1v-.31H284v2.71h-.37l-.3-.84c-.44-1.23-1.19-1.33-2.31-1.33h-2.73v4.48h2c1.05,0,1.52-.12,1.77-1l.11-.43h.37v3.39h-.37l-.11-.44c-.25-.87-.72-1-1.77-1h-2v4.67a7.69,7.69,0,0,0,1.92.15c2.13,0,2.85-.14,3.3-1.34l.46-1.23Z"/></g></g></svg>