<svg xmlns="http://www.w3.org/2000/svg" viewBox="0 0 247.81 406.63"><defs><style>.cls-1{fill:#fada80;}</style></defs><g id="Calque_2" data-name="Calque 2"><g id="Layer_1" data-name="Layer 1"><path class="cls-1" d="M238.21,235.59h0a5,5,0,0,1-3,6.42h0a5,5,0,0,1-6.41-3h0a5,5,0,0,1,9.39-3.44Zm-2-19.8h0a5,5,0,0,1-4.33,5h0a5,5,0,0,1-5.62-4.28h0a5,5,0,0,1,4.29-5.62h0a5,5,0,0,1,5.62,4.29A4.87,4.87,0,0,1,236.26,215.79Zm8.09,40.91h0a4.11,4.11,0,0,1,.19.65h0a5,5,0,0,1-3.82,6h0a5,5,0,0,1-6-3.83h0a5,5,0,0,1,9.59-2.78ZM230,194.22h0a5,5,0,0,1-3.7,4.84h0a5,5,0,0,1-6.13-3.54h0a5,5,0,0,1,3.53-6.12h0a5,5,0,0,1,6.13,3.53A4.77,4.77,0,0,1,230,194.22Zm17.56,84.23h0a5.07,5.07,0,0,1,.29,1.36h0a5,5,0,0,1-4.63,5.35h0a5,5,0,0,1-5.35-4.62h0a5,5,0,0,1,9.69-2.09Zm-24.62-105h0A5,5,0,0,1,219.8,178h0a5,5,0,0,1-6.54-2.71h0a5,5,0,0,1,2.71-6.54h0a5,5,0,0,1,6.53,2.71h0A5.33,5.33,0,0,1,222.89,173.4Zm24.61,127h0a5.15,5.15,0,0,1,.28,2.08h0a5,5,0,0,1-5.35,4.62h0a5,5,0,0,1-4.62-5.34h0a5,5,0,0,1,9.69-1.36ZM213.14,153.69h0a5,5,0,0,1-2.5,4.33h0a5,5,0,0,1-6.83-1.8h0a5,5,0,0,1,1.82-6.84h0a5,5,0,0,1,6.83,1.81A5.16,5.16,0,0,1,213.14,153.69Zm31.24,168.5h0a5,5,0,0,1,.19,2.76h0a5,5,0,0,1-5.94,3.85h0a5,5,0,0,1-3.84-5.94h0a5,5,0,0,1,9.59-.67ZM200.79,135.5h0a5,5,0,0,1-1.9,3.95h0a5,5,0,0,1-7-.84h0a5,5,0,0,1,.83-7h0a5,5,0,0,1,7,.84h0A4.9,4.9,0,0,1,200.79,135.5Zm37.58,207.84h0a5,5,0,0,1,0,3.39h0a5,5,0,0,1-6.38,3h0a5,5,0,0,1-3-6.39h0a5,5,0,0,1,9.41,0ZM186,119.27h0a5,5,0,0,1-1.37,3.45h0a5,5,0,0,1-7.07.2h0a5,5,0,0,1-.2-7.07h0a5,5,0,0,1,7.07-.2h0A5,5,0,0,1,186,119.27Zm43.7,244.26h0a5,5,0,0,1-.23,4h0a5,5,0,0,1-6.72,2.19h0a5,5,0,0,1-2.19-6.72h0a5,5,0,0,1,9.15.54ZM169,105.38h0a4.92,4.92,0,0,1-.94,2.91h0a5,5,0,0,1-7,1.16h0a5,5,0,0,1-1.17-7h0a5,5,0,0,1,7-1.16h0A5,5,0,0,1,169,105.38Zm49.58,277.1h0A5,5,0,0,1,218,387h0a5,5,0,0,1-6.94,1.34h0a5,5,0,0,1-1.35-6.93h0a5,5,0,0,1,6.94-1.35A4.9,4.9,0,0,1,218.53,382.48ZM150.41,93.56h0a5,5,0,0,1-.66,2.5h0a5,5,0,0,1-6.83,1.83h0a5,5,0,0,1-1.84-6.83h0a5,5,0,0,1,9.33,2.49Zm54.72,306.35h0a5,5,0,0,1-.92,5h0a5,5,0,0,1-7.06.47h0a5,5,0,0,1-.48-7h0a5,5,0,0,1,7.06-.48A4.86,4.86,0,0,1,205.13,399.91ZM131,83.22h0a5,5,0,0,1-.52,2.24h0a5,5,0,0,1-6.71,2.24h0A5,5,0,0,1,121.53,81h0a5,5,0,0,1,6.7-2.24h0A5,5,0,0,1,131,83.22Zm-19.82-9.55h0a5,5,0,0,1-.47,2.14h0a5,5,0,0,1-6.66,2.38h0a5,5,0,0,1-2.39-6.65h0a5,5,0,0,1,9.52,2.13Zm-18.54-5.4h0a5,5,0,0,1-.52,2.21h0a5,5,0,0,1-6.68,2.28h0a5,5,0,0,1-2.3-6.69h0a5,5,0,0,1,9.5,2.2Z"/><path class="cls-1" d="M.44,3h0A5,5,0,0,1,2.51.66h0A5,5,0,0,1,9.34,2.52h0A5,5,0,0,1,7.49,9.33h0A5,5,0,0,1,.66,7.49h0A5,5,0,0,1,.44,3Z"/><path class="cls-1" d="M18.33,18.4h0c.07-.1.15-.22.23-.32h0a5,5,0,0,1,7-.79h0a5,5,0,0,1,.78,7h0a5,5,0,0,1-7,.79h0A5,5,0,0,1,18.33,18.4Z"/><path class="cls-1" d="M33.48,33.59h0a5,5,0,0,1,.67-1.1h0a5,5,0,0,1,7-.77h0a5,5,0,0,1,.77,7h0a5,5,0,0,1-8.47-5.17Z"/><path class="cls-1" d="M49.6,48.5h0a4.93,4.93,0,0,1,1.29-1.72h0a5,5,0,0,1,7,.5h0a5,5,0,0,1-.5,7h0A5,5,0,0,1,49.6,48.5Z"/><path class="cls-1" d="M65.41,61h0a5,5,0,0,1,1.12-2.88h0a5,5,0,0,1,7-.67h0a5,5,0,0,1,.67,7h0a5,5,0,0,1-7,.69h0A5,5,0,0,1,65.41,61Z"/></g></g></svg>