<svg xmlns="http://www.w3.org/2000/svg" viewBox="0 0 65.5 160.72"><defs><style>.cls-1{fill:#fada80;}</style></defs><g id="Calque_2" data-name="Calque 2"><g id="Layer_1" data-name="Layer 1"><path class="cls-1" d="M27.6,95.68h0A5,5,0,0,1,21,98.2h0a5,5,0,0,1-2.52-6.61h0a5,5,0,0,1,6.61-2.52h0a5,5,0,0,1,2.68,6.2h0C27.71,95.41,27.65,95.55,27.6,95.68Zm6.12-19.93a5,5,0,0,1-5.84-4h0a5,5,0,0,1,4-5.84h0a5,5,0,0,1,5.84,4h0a4.94,4.94,0,0,1-.18,2.57h0A5,5,0,0,1,33.72,75.75ZM22.44,118.84A5,5,0,0,1,16,116h0a5,5,0,0,1,2.89-6.45h0a5,5,0,0,1,6.46,2.89h0a5,5,0,0,1,.05,3.41h0A5,5,0,0,1,22.44,118.84ZM48.09,65.13a5,5,0,0,1-.66-7h0a5,5,0,0,1,7-.67h0a5,5,0,0,1,.66,7h0a5,5,0,0,1-5.05,1.68h0A5,5,0,0,1,48.09,65.13Zm-29,95.46a5,5,0,0,1-3.75-6h0a5,5,0,0,1,6-3.74h0a5,5,0,0,1,3.74,6h0a4.44,4.44,0,0,1-.15.52h0A5,5,0,0,1,19.08,160.59ZM55.61,40.47a5,5,0,0,1,6-3.83h0a5,5,0,0,1,3.82,6h0a5,5,0,0,1-5.94,3.83h0l-.14,0h0A5,5,0,0,1,55.61,40.47ZM2.29,26.41A5,5,0,0,1,.79,19.5h0A5,5,0,0,1,7.71,18h0A5,5,0,0,1,9.2,24.92h0a5,5,0,0,1-5.4,2.15h0A5,5,0,0,1,2.29,26.41Zm51.31-7h0A5,5,0,0,1,58.05,14h0a5,5,0,0,1,5.49,4.45h0a5,5,0,0,1-4.45,5.5h0a4.86,4.86,0,0,1-1.71-.13h0A5,5,0,0,1,53.6,19.44ZM14.21,10.69a5,5,0,0,1,.19-7.07h0a5,5,0,0,1,7.07.2h0a5,5,0,0,1-.2,7.07h0a5,5,0,0,1-4.63,1.21h0A4.87,4.87,0,0,1,14.21,10.69ZM34.16,7.46A5,5,0,0,1,36.05.65h0a5,5,0,0,1,6.82,1.89h0A5,5,0,0,1,41,9.35h0a4.91,4.91,0,0,1-3.65.5h0A5,5,0,0,1,34.16,7.46Z"/></g></g></svg>