<svg xmlns="http://www.w3.org/2000/svg" viewBox="0 0 163.34 240.2"><defs><style>.cls-1{fill:#fada80;}</style></defs><g id="Calque_2" data-name="Calque 2"><g id="Layer_1" data-name="Layer 1"><path class="cls-1" d="M7.83,3.5A5,5,0,0,1,14.09.23h0a5,5,0,0,1,3.29,6.26h0a5,5,0,0,1-6.27,3.28h0a5,5,0,0,1-3.3-6.18h0Z"/><path class="cls-1" d="M8.28,21.44a5,5,0,0,1,4.07,5.79h0a5,5,0,0,1-5.8,4.06h0a5,5,0,0,1-4-5.79h0A3.65,3.65,0,0,1,2.63,25h0A5,5,0,0,1,8.28,21.44Z"/><path class="cls-1" d="M5.24,43.22A5,5,0,0,1,10,48.45h0a5,5,0,0,1-5.23,4.76h0A5,5,0,0,1,0,48H0A4.47,4.47,0,0,1,.2,46.81h0A5,5,0,0,1,5.24,43.22Z"/><path class="cls-1" d="M4.94,65.22a5,5,0,0,1,5.38,4.59h0a5,5,0,0,1-4.6,5.38h0a5,5,0,0,1-5.37-4.6h0a4.89,4.89,0,0,1,.19-1.8h0A5,5,0,0,1,4.94,65.22Z"/><path class="cls-1" d="M8.41,87.07a5,5,0,0,1,5.91,3.87h0a5,5,0,0,1-3.88,5.92h0A5,5,0,0,1,4.53,93h0a4.93,4.93,0,0,1,.09-2.42h0A5,5,0,0,1,8.41,87.07Z"/><path class="cls-1" d="M19.59,103a5,5,0,0,1,7.06.38h0a5,5,0,0,1-.38,7.06h0a5,5,0,0,1-7.06-.39h0A4.93,4.93,0,0,1,18,107.26h0A5,5,0,0,1,19.59,103Z"/><path class="cls-1" d="M30.13,127.62a5,5,0,0,1,5.67-4.23h0A5,5,0,0,1,40,129.06h0a5,5,0,0,1-5.67,4.23h0a5,5,0,0,1-4.24-4.39h0A5,5,0,0,1,30.13,127.62Z"/><path class="cls-1" d="M38.19,108.77h0a5,5,0,0,1,6.57-2.6h0a5,5,0,0,1,2.6,6.58h0a5,5,0,0,1-6.57,2.6h0a5,5,0,0,1-3-4h0A5,5,0,0,1,38.19,108.77Z"/><path class="cls-1" d="M52.2,132.35a5,5,0,0,1,6.88-1.65h0a5,5,0,0,1,1.64,6.88h0a5,5,0,0,1-6.88,1.65h0a5,5,0,0,1-2.36-3.71h0A4.94,4.94,0,0,1,52.2,132.35Z"/><path class="cls-1" d="M48.62,88.65A5,5,0,0,1,55.49,87h0a5,5,0,0,1,1.67,6.87h0a5,5,0,0,1-6.87,1.67h0a5,5,0,0,1-2.37-3.72h0A4.92,4.92,0,0,1,48.62,88.65Z"/><path class="cls-1" d="M71.42,143a5,5,0,0,1,6.52-2.75h0a5,5,0,0,1,2.75,6.51h0a5,5,0,0,1-6.52,2.75h0a5,5,0,0,1-3.09-4.08h0A5,5,0,0,1,71.42,143Z"/><path class="cls-1" d="M23.31,184.76a5,5,0,0,1,5.25,4.74h0a5,5,0,0,1-4.75,5.24h0A5,5,0,0,1,18.57,190h0v-.06h0A5,5,0,0,1,23.31,184.76Z"/><path class="cls-1" d="M19,167.34a5,5,0,0,1,5.41-4.55h0a5,5,0,0,1,4.56,5.41h0a5,5,0,0,1-5.41,4.55h0A5,5,0,0,1,19,168h0C19,167.76,19,167.55,19,167.34Z"/><path class="cls-1" d="M25.19,207.65a5,5,0,0,1,5.86,4h0a5,5,0,0,1-3.95,5.87h0a5,5,0,0,1-5.87-4h0a5.2,5.2,0,0,1-.09-.77h0A5,5,0,0,1,25.19,207.65Z"/><path class="cls-1" d="M22.38,145a5,5,0,0,1,6-3.8h0a5,5,0,0,1,3.8,6h0a5,5,0,0,1-5.95,3.8h0a5,5,0,0,1-3.92-4.68h0A5.59,5.59,0,0,1,22.38,145Z"/><path class="cls-1" d="M28.74,230.26A5,5,0,0,1,33,235.94h0a5,5,0,0,1-5.69,4.2h0a5,5,0,0,1-4.2-5.68h0A5,5,0,0,1,24.19,232h0A5,5,0,0,1,28.74,230.26Z"/><path class="cls-1" d="M66.47,69.42h0a5,5,0,0,1,6.87,1.68h0A5,5,0,0,1,71.65,78h0a5,5,0,0,1-6.86-1.69h0a4.91,4.91,0,0,1-.63-1.62h0A5,5,0,0,1,66.47,69.42Z"/><path class="cls-1" d="M88,60.25a5,5,0,0,1,6.07,3.64h0A5,5,0,0,1,90.45,70h0a5,5,0,0,1-6.07-3.63h0l-.06-.25h0A5,5,0,0,1,88,60.25Z"/><path class="cls-1" d="M106.08,62.9a5,5,0,0,1,5.38-4.57h0A5,5,0,0,1,116,63.71h0a5,5,0,0,1-5.38,4.58h0a5,5,0,0,1-4.49-4h0A4.89,4.89,0,0,1,106.08,62.9Z"/><path class="cls-1" d="M127.7,66.74a5,5,0,0,1,6.68-2.33h0a5,5,0,0,1,2.33,6.68h0A5,5,0,0,1,130,73.42h0a5,5,0,0,1-2.74-3.54h0A5,5,0,0,1,127.7,66.74Z"/><path class="cls-1" d="M146.22,78.52a5,5,0,0,1,7,.81h0a5,5,0,0,1-.81,7h0a5,5,0,0,1-7-.82h0a5,5,0,0,1-1-2.14h0A5,5,0,0,1,146.22,78.52Z"/><path class="cls-1" d="M153.43,103.23a5,5,0,0,1,3.95-5.87h0a5,5,0,0,1,5.86,3.94h0a5,5,0,0,1-3.94,5.88h0a5,5,0,0,1-5.87-4Z"/><path class="cls-1" d="M161.27,129.27a5,5,0,0,1-7,1h0a5,5,0,0,1-1-7h0a5,5,0,0,1,7-1h0l.21.16h0A5,5,0,0,1,161.27,129.27Z"/><path class="cls-1" d="M147.54,139.53a5,5,0,0,1-1.33,6.94h0a5,5,0,0,1-6.94-1.33h0a5,5,0,0,1,1.32-6.94h0a5,5,0,0,1,6,.31h0A5.06,5.06,0,0,1,147.54,139.53Z"/><path class="cls-1" d="M128.29,150.09a5,5,0,0,1-3.75,6h0a5,5,0,0,1-6-3.74h0a5,5,0,0,1,3.74-6h0a5,5,0,0,1,4.35,1h0A5,5,0,0,1,128.29,150.09Z"/><path class="cls-1" d="M106.47,152.52a5,5,0,0,1-6,3.78h0a5,5,0,0,1-3.77-6h0a5,5,0,0,1,6-3.77h0a4.94,4.94,0,0,1,2.11,1.05h0A5,5,0,0,1,106.47,152.52Z"/></g></g></svg>