<svg xmlns="http://www.w3.org/2000/svg" viewBox="0 0 145.27 199.82"><defs><style>.cls-1{fill:#fada80;}</style></defs><g id="Calque_2" data-name="Calque 2"><g id="Layer_1" data-name="Layer 1"><path class="cls-1" d="M9.93,4.15A5,5,0,0,1,5.85,9.93h0A5,5,0,0,1,.07,5.85h0A5,5,0,0,1,4.15.07h0A5,5,0,0,1,6.41.2h0A5,5,0,0,1,9.93,4.15ZM14.1,25.49h0a5,5,0,0,1-3.77,6h0a5,5,0,0,1-6-3.76h0a5,5,0,0,1,3.77-6h0a5,5,0,0,1,2.52.08h0A5,5,0,0,1,14.1,25.49ZM19.72,46.3h0a5,5,0,0,1-3.23,6.28h0a5,5,0,0,1-6.29-3.24h0a5,5,0,0,1,3.23-6.28h0a5,5,0,0,1,2.94,0h0A5,5,0,0,1,19.72,46.3Zm7.54,20.16h0A5,5,0,0,1,24.62,73h0a5,5,0,0,1-6.57-2.63h0a5,5,0,0,1,2.64-6.56h0a5,5,0,0,1,3.38-.2h0A5,5,0,0,1,27.26,66.46Zm9.35,19.41h0a5,5,0,0,1-2,6.78h0a5,5,0,0,1-6.77-2h0a5,5,0,0,1,2-6.77h0a5,5,0,0,1,3.78-.39h0A5,5,0,0,1,36.61,85.87Zm11,18.5h0a5,5,0,0,1-1.42,6.92h0a5,5,0,0,1-6.92-1.43h0a5,5,0,0,1,1.43-6.92h0a5,5,0,0,1,4.16-.61h0A4.88,4.88,0,0,1,47.64,104.37Zm12.62,17.5a5,5,0,0,1-.83,7h0a5,5,0,0,1-7-.84h0a5,5,0,0,1,.83-7h0a5,5,0,0,1,4.51-.86h0A4.84,4.84,0,0,1,60.26,121.87Zm14.05,16.36a5,5,0,0,1-.23,7.07h0a5,5,0,0,1-7.07-.25h0a5,5,0,0,1,.24-7.06h0a5,5,0,0,1,4.83-1.15h0A5.07,5.07,0,0,1,74.31,138.23Zm15.38,15.14a5,5,0,0,1,.34,7.06h0a5,5,0,0,1-7.06.35h0a5,5,0,0,1-.34-7.06h0a5,5,0,0,1,5.13-1.44h0A5.11,5.11,0,0,1,89.69,153.37Zm16.57,13.81a5,5,0,0,1,.94,7h0a5,5,0,0,1-7,.93h0a5,5,0,0,1-.93-7h0a5,5,0,0,1,5.39-1.76h0A4.73,4.73,0,0,1,106.26,167.18Zm17.68,12.38h0a5,5,0,0,1,1.52,6.9h0a5,5,0,0,1-6.9,1.53h0a5,5,0,0,1-1.53-6.91h0a5,5,0,0,1,5.63-2.11h0A4.94,4.94,0,0,1,123.94,179.56Zm18.65,10.83a5,5,0,0,1,2.11,6.75h0a5,5,0,0,1-6.76,2.11h0a5,5,0,0,1-2.1-6.76h0a5,5,0,0,1,5.84-2.46h0A5.38,5.38,0,0,1,142.59,190.39Z"/></g></g></svg>