<svg xmlns="http://www.w3.org/2000/svg" viewBox="0 0 66.78 135.76"><defs><style>.cls-1{fill:#1d1d1b;}.cls-2{fill:#1e1e1c;}</style></defs><g id="Calque_2" data-name="Calque 2"><g id="Calque_1-2" data-name="Calque 1"><path class="cls-1" d="M29.72,128.72V74.85h-1.3l-3.79.72v53.15c0,4.62-1.47,5.26-6.88,5.66v1.38H36.59v-1.38C31.25,134,29.72,133.34,29.72,128.72Z"/><rect class="cls-1" x="24.63" width="5.09" height="80.63" rx="2.54"/><path class="cls-2" d="M60,11l6.71,4.05c.07,0,.06,0,0,0l-5,5.8-2.9.86-31.1,4.76h-.13l-.79-5.31c-.07,0-.07,0,0,0l-.65-5.32a.42.42,0,0,1,.12,0l31.11-4.76Z"/><path class="cls-2" d="M4.85,37.93,0,33.54s0,0,0,0l3.38-5.49,2-.7,21.71-3h.09l.68,5.32c.05,0,.05,0,0,0L28.5,35l-.09,0L6.7,38S4.87,37.94,4.85,37.93Z"/><path class="cls-2" d="M15.61,55.78a.33.33,0,0,1-.13-.21l-1-6.27v0c0,.32-.17.24,0,0L17.28,46a.3.3,0,0,1,.19-.14l.91-.16L28.11,48l.26.44-1,4.91s0,0,0,0l-1,4.93-.37.26-9.76-2.28S15.81,55.94,15.61,55.78Z"/></g></g></svg>