<svg xmlns="http://www.w3.org/2000/svg" viewBox="0 0 473.38 317.2"><defs><style>.cls-1{fill:#fffaea;}</style></defs><g id="Calque_2" data-name="Calque 2"><g id="Layer_1" data-name="Layer 1"><path class="cls-1" d="M14.19,254.53a5,5,0,0,1,1.06-7h0a5,5,0,0,1,7,1.07h0a5,5,0,0,1-1.06,7h0a5,5,0,0,1-5.61.22h0A4.7,4.7,0,0,1,14.19,254.53Z"/><path class="cls-1" d="M3.61,233.5h0a5,5,0,0,1,3.28-6.26h0a5,5,0,0,1,6.26,3.27h0a5,5,0,0,1-3.27,6.27h0a5,5,0,0,1-4.14-.52h0A5,5,0,0,1,3.61,233.5Z"/><path class="cls-1" d="M0,210.41a5,5,0,0,1,4.93-5.06h0A5,5,0,0,1,10,210.29h0a5,5,0,0,1-4.94,5.07h0a5.11,5.11,0,0,1-2.69-.76h0A5,5,0,0,1,0,210.41Z"/><path class="cls-1" d="M2.86,187.3A5,5,0,0,1,9,183.75H9a5,5,0,0,1,3.56,6.1h0a5,5,0,0,1-6.11,3.56h0a4.85,4.85,0,0,1-1.36-.58h0A5,5,0,0,1,2.86,187.3Z"/><path class="cls-1" d="M11.86,165.78h0a5,5,0,0,1,6.85-1.72h0a5,5,0,0,1,1.73,6.85h0a5,5,0,0,1-6.86,1.73h0l-.07,0h0A5,5,0,0,1,11.86,165.78Z"/><path class="cls-1" d="M26.39,154.79a5,5,0,0,1,.51-7h0a5,5,0,0,1,7.05.51h0a5,5,0,0,1-.51,7.05h0a5,5,0,0,1-5.91.46h0A5.2,5.2,0,0,1,26.39,154.79Z"/><path class="cls-1" d="M44.25,142.05a5,5,0,0,1,2.53-6.61h0A5,5,0,0,1,53.39,138h0a5,5,0,0,1-2.53,6.6h0a5,5,0,0,1-4.68-.31h0A5,5,0,0,1,44.25,142.05Z"/><path class="cls-1" d="M64.73,134a5,5,0,0,1,3.3-6.25h0a5,5,0,0,1,6.25,3.3h0A5,5,0,0,1,71,137.34h0a5,5,0,0,1-4.12-.53h0A5,5,0,0,1,64.73,134Z"/><path class="cls-1" d="M85.77,127.57a5,5,0,0,1,3-6.4h0a5,5,0,0,1,6.4,3h0a5,5,0,0,1-3,6.39h0a5,5,0,0,1-4.33-.46h0A4.88,4.88,0,0,1,85.77,127.57Z"/><path class="cls-1" d="M106.09,119.19a5,5,0,0,1,1.74-6.85h0a5,5,0,0,1,6.86,1.74h0a5,5,0,0,1-1.74,6.85h0a5,5,0,0,1-5.21-.05h0A5,5,0,0,1,106.09,119.19Z"/><path class="cls-1" d="M124.33,106.91a5,5,0,0,1,.34-7.06h0a5,5,0,0,1,7.07.36h0a5,5,0,0,1-.35,7.06h0a5,5,0,0,1-6,.54h0A4.83,4.83,0,0,1,124.33,106.91Z"/><path class="cls-1" d="M139.85,91.34a5,5,0,0,1-.95-7h0a5,5,0,0,1,7-1h0a5,5,0,0,1,.95,7h0a5,5,0,0,1-6.6,1.22h0A2.8,2.8,0,0,1,139.85,91.34Z"/><path class="cls-1" d="M150.15,66.48h0a5,5,0,0,1,6.73-2.15h0A5,5,0,0,1,159,71.06h0a5,5,0,0,1-6.74,2.16h0A3.79,3.79,0,0,1,152,73h0A5,5,0,0,1,150.15,66.48Z"/><path class="cls-1" d="M158.13,47a5,5,0,0,1,6.26-3.3h0a5,5,0,0,1,3.3,6.26h0a5,5,0,0,1-6.26,3.3h0a5.2,5.2,0,0,1-1.17-.54h0A5,5,0,0,1,158.13,47Z"/><path class="cls-1" d="M162.56,26.35A5,5,0,0,1,168.13,22h0a5,5,0,0,1,4.36,5.57h0a5,5,0,0,1-5.57,4.36h0a4.92,4.92,0,0,1-2-.71h0A5,5,0,0,1,162.56,26.35Z"/><path class="cls-1" d="M163.08,5.36h0A5,5,0,0,1,167.71,0h0a5,5,0,0,1,5.35,4.62h0A5,5,0,0,1,168.44,10h0a5,5,0,0,1-3-.75h0A5,5,0,0,1,163.08,5.36Z"/><path class="cls-1" d="M26.59,262.23a5,5,0,0,1,7.06.37h0a5,5,0,0,1-.38,7.06h0a5,5,0,0,1-7.05-.38h0a5,5,0,0,1,0-6.71h0A3.64,3.64,0,0,1,26.59,262.23Z"/><path class="cls-1" d="M49.09,277h0a5,5,0,0,1,.86,7h0a5,5,0,0,1-7,.87h0a5,5,0,0,1-.86-7h0l.26-.3h0A5,5,0,0,1,49.09,277Z"/><path class="cls-1" d="M66.78,288.48a5,5,0,0,1,2.06,6.77h0a5,5,0,0,1-6.76,2.06h0A5,5,0,0,1,60,290.55h0a4.68,4.68,0,0,1,.75-1h0A5,5,0,0,1,66.78,288.48Z"/><path class="cls-1" d="M86.19,296.68A5,5,0,0,1,89.44,303h0a5,5,0,0,1-6.29,3.25h0a5,5,0,0,1-3.24-6.29h0A4.85,4.85,0,0,1,81,298.06h0A5,5,0,0,1,86.19,296.68Z"/><path class="cls-1" d="M106.72,301.12h0a5,5,0,0,1,4.38,5.54h0a5,5,0,0,1-5.53,4.39h0a5,5,0,0,1-4.4-5.54h0a5,5,0,0,1,1.29-2.81h0A5,5,0,0,1,106.72,301.12Z"/><path class="cls-1" d="M123,307.45a5,5,0,0,1,6.08-3.61h0a5,5,0,0,1,3.61,6.07h0a5,5,0,0,1-6.07,3.62h0a5,5,0,0,1-3.71-5.61h0A4.3,4.3,0,0,1,123,307.45Z"/><path class="cls-1" d="M149.87,307.21h0a5,5,0,0,1,4.61,5.34h0a5,5,0,0,1-5.35,4.63h0a5,5,0,0,1-4.62-5.36h0c0-.13,0-.27.05-.4h0A5,5,0,0,1,149.87,307.21Z"/><path class="cls-1" d="M171.08,307.21a5,5,0,0,1,4.64,5.34h0a5,5,0,0,1-5.35,4.64h0a5,5,0,0,1-4.63-5.35h0a5.23,5.23,0,0,1,.25-1.25h0A5,5,0,0,1,171.08,307.21Z"/><path class="cls-1" d="M192.15,307.23a5,5,0,0,1,5.52,4.42h0a5,5,0,0,1-4.43,5.52h0a5,5,0,0,1-5.51-4.43h0a4.92,4.92,0,0,1,.22-2.14h0A5,5,0,0,1,192.15,307.23Z"/><path class="cls-1" d="M214.71,307.42h0a5,5,0,0,1,6.26,3.29h0A5,5,0,0,1,217.7,317h0a5,5,0,0,1-6.28-3.28h0a5,5,0,0,1,.05-3.09h0A5,5,0,0,1,214.71,307.42Z"/><path class="cls-1" d="M240.4,307.21h0a5,5,0,0,1,4.61,5.35h0a5,5,0,0,1-5.35,4.62h0a5,5,0,0,1-4.62-5.36h0c0-.13,0-.26.05-.39h0A5,5,0,0,1,240.4,307.21Z"/><path class="cls-1" d="M261.61,307.21a5,5,0,0,1,4.64,5.34h0a5,5,0,0,1-5.35,4.64h0a5,5,0,0,1-4.63-5.35h0a5.23,5.23,0,0,1,.25-1.25h0A5,5,0,0,1,261.61,307.21Z"/><path class="cls-1" d="M282.68,307.23a5,5,0,0,1,5.52,4.42h0a5,5,0,0,1-4.43,5.52h0a5,5,0,0,1-5.51-4.43h0a4.92,4.92,0,0,1,.22-2.14h0A5,5,0,0,1,282.68,307.23Z"/><path class="cls-1" d="M305.24,307.42h0a5,5,0,0,1,6.26,3.29h0a5,5,0,0,1-3.27,6.26h0a5,5,0,0,1-6.28-3.28h0a5,5,0,0,1,.05-3.09h0A5,5,0,0,1,305.24,307.42Z"/><path class="cls-1" d="M332.73,306.05a5,5,0,0,1,4.63,5.34h0A5,5,0,0,1,332,316h0a5,5,0,0,1-4.63-5.35h0a5.23,5.23,0,0,1,.25-1.25h0A5,5,0,0,1,332.73,306.05Z"/><path class="cls-1" d="M353.8,306.07a5,5,0,0,1,5.52,4.42h0a5,5,0,0,1-4.43,5.52h0a5,5,0,0,1-5.51-4.43h0a4.92,4.92,0,0,1,.22-2.14h0A5,5,0,0,1,353.8,306.07Z"/><path class="cls-1" d="M376.36,306.26h0a5,5,0,0,1,6.26,3.29h0a5,5,0,0,1-3.28,6.26h0a5,5,0,0,1-6.27-3.28h0a5.08,5.08,0,0,1,0-3.09h0A5,5,0,0,1,376.36,306.26Z"/><path class="cls-1" d="M402.05,306.05h0a5,5,0,0,1,4.61,5.35h0a5,5,0,0,1-5.35,4.62h0a5,5,0,0,1-4.62-5.36h0c0-.13,0-.26.05-.39h0A5,5,0,0,1,402.05,306.05Z"/><path class="cls-1" d="M423.26,306.05a5,5,0,0,1,4.63,5.34h0a5,5,0,0,1-5.34,4.64h0a5,5,0,0,1-4.63-5.35h0a5.23,5.23,0,0,1,.25-1.25h0A5,5,0,0,1,423.26,306.05Z"/><path class="cls-1" d="M444.33,306.07a5,5,0,0,1,5.52,4.42h0a5,5,0,0,1-4.43,5.52h0a5,5,0,0,1-5.51-4.43h0a4.92,4.92,0,0,1,.22-2.14h0A5,5,0,0,1,444.33,306.07Z"/><path class="cls-1" d="M466.89,306.26h0a5,5,0,0,1,6.26,3.29h0a5,5,0,0,1-3.28,6.26h0a5,5,0,0,1-6.27-3.28h0a5.08,5.08,0,0,1,0-3.09h0A5,5,0,0,1,466.89,306.26Z"/></g></g></svg>