<svg xmlns="http://www.w3.org/2000/svg" viewBox="0 0 80.2 80.2"><defs><style>.cls-1{fill:#fb483b;}</style></defs><g id="Calque_2" data-name="Calque 2"><g id="Calque_1-2" data-name="Calque 1"><path class="cls-1" d="M80.2,40.1A40.12,40.12,0,0,1,25.4,77.42c-1-.41-2.09-.87-3.1-1.38A40.1,40.1,0,1,1,80.2,40.1Z"/><g id="Calque_1-3" data-name="Calque 1"><path d="M25.4,63.4v14c-1-.41-2.09-.87-3.1-1.38V63.8l2.3-.4Z"/><path id="Rectangle_76" data-name="Rectangle 76" d="M23.9,17.2h0a1.58,1.58,0,0,1,1.6,1.6V65.4A1.58,1.58,0,0,1,23.9,67h0a1.58,1.58,0,0,1-1.6-1.6V18.8A1.58,1.58,0,0,1,23.9,17.2Z"/><path id="Tracé_3115" data-name="Tracé 3115" d="M44.1,24l4.1,2.5h0l-3.1,3.6-1.8.5L24.1,33.5H24l-.5-3.3h0L23.2,27h.1l19.2-3Z"/><path id="Tracé_3116" data-name="Tracé 3116" d="M10.1,40.6l-3-2.7h0l2.1-3.4,1.2-.4,13.4-1.9h.1l.4,3.3h0l.4,3.3h-.1L11.2,40.6C11.2,40.7,10.1,40.6,10.1,40.6Z"/><path id="Tracé_3117" data-name="Tracé 3117" d="M16.7,51.6l-.1-.1L16,47.6h0c0,.2-.1.1,0,0l1.7-2,.1-.1.6-.1,6,1.4.2.3-.6,3h0l-.6,3-.2.2-6-1.4C17.1,51.9,16.9,51.7,16.7,51.6Z"/></g></g></g></svg>